<?xml version="1.0" encoding="UTF-8" standalone="no"?>
<!-- Created with Inkscape (http://www.inkscape.org/) -->
<?xml-stylesheet type="text/css" href="svg-stylesheet.css" ?>
<svg
   xmlns:osb="http://www.openswatchbook.org/uri/2009/osb"
   xmlns:dc="http://purl.org/dc/elements/1.1/"
   xmlns:cc="http://creativecommons.org/ns#"
   xmlns:rdf="http://www.w3.org/1999/02/22-rdf-syntax-ns#"
   xmlns:svg="http://www.w3.org/2000/svg"
   xmlns="http://www.w3.org/2000/svg"
   xmlns:sodipodi="http://sodipodi.sourceforge.net/DTD/sodipodi-0.dtd"
   xmlns:inkscape="http://www.inkscape.org/namespaces/inkscape"
   width="64"
   height="64"
   id="svg5268"
   version="1.1"
   inkscape:version="0.91 r13725"
   viewBox="0 0 64 64"
   sodipodi:docname="doctor.svg">
  <sodipodi:namedview
     id="base"
     pagecolor="#ffffff"
     bordercolor="#666666"
     borderopacity="1.0"
     inkscape:pageopacity="0.0"
     inkscape:pageshadow="2"
     inkscape:zoom="5.5"
     inkscape:cx="32.689213"
     inkscape:cy="44.607837"
     inkscape:current-layer="layer1"
     showgrid="true"
     inkscape:document-units="px"
     inkscape:grid-bbox="true"
     inkscape:window-width="1920"
     inkscape:window-height="1018"
     inkscape:window-x="1912"
     inkscape:window-y="-8"
     inkscape:window-maximized="1"
     showguides="false" />
  <metadata
     id="metadata5273">
    <rdf:RDF>
      <cc:Work
         rdf:about="">
        <dc:format>image/svg+xml</dc:format>
        <dc:type
           rdf:resource="http://purl.org/dc/dcmitype/StillImage" />
        <dc:title></dc:title>
      </cc:Work>
    </rdf:RDF>
  </metadata>
  <g
     id="layer1"
     inkscape:label="Layer 1"
     inkscape:groupmode="layer">
    <circle
       class="doctor_color thinstroke semitransparent"
       id="path5851"
       cx="32"
       cy="13.938291"
       r="8.842597" />
    <g
       id="g4205"
       clip-path="none"
       transform="matrix(0.926105,0,0,0.926105,0.28870508,-5.8050736)">
      <rect
         ry="11.457917"
         y="31.139364"
         x="21.442839"
         height="41.417587"
         width="25.597475"
         id="rect5853"
         class="doctor_color normalstroke semitransparent" 
       />
    </g>
    <path
       class="doctor_color normalstroke emptypath"
       d="m 23.090909,13.545455 -1.045454,0.04545 c 0,0 0.810606,16.351624 4.045455,21.954546 1.909284,3.306978 5.875479,3.182399 5.875479,3.182399"
       id="path5787"
       inkscape:connector-curvature="0"
       sodipodi:nodetypes="ccsc" />
    <path
       sodipodi:nodetypes="ccsc"
       inkscape:connector-curvature="0"
       id="path5800"
       d="m 40.823262,13.545455 1.045454,0.04545 c 0,0 -0.810606,16.351624 -4.045455,21.954546 -1.909284,3.306978 -5.875479,3.182399 -5.875479,3.182399"
       class="doctor_color normalstroke emptypath"
       style="stroke-linecap:butt"
       />
    <path
       class="doctor_color normalstroke emptypath"
       d="m 31.980511,38.672721 0,4.821182 c 0,0 0,1.914376 0.886364,2.755285 l 0.77072,0.84091"
       id="path5802"
       inkscape:connector-curvature="0"
       sodipodi:nodetypes="cccc" />
    <circle
       class="doctor_color normalstroke opaque"
       id="path5804"
       cx="34.119148"
       cy="46.581493"
       r="1.015552" />
    <path
       class="doctor_overlay_color normalstroke opaque"
       d="m 27.335724,3.0865933 c 1.090909,-1.3181818 8.691538,-1.3181818 9.50972,0 l 1.707572,6.5321428 -12.834992,0 z"
       id="rect5808"
       inkscape:connector-curvature="0"
       sodipodi:nodetypes="ccccc" />
    <path
       class="doctor_color thinstroke opaque"
       d="m 31.346732,3.9401131 0,1.361075 -1.361075,0 0,1.306537 1.361075,0 0,1.361074 1.306537,0 0,-1.361074 1.361074,0 0,-1.306537 -1.361074,0 0,-1.361075 -1.306537,0 z"
       id="rect5898"
       inkscape:connector-curvature="0" />
  </g>
</svg>
