<?xml version="1.0" encoding="UTF-8" standalone="no"?>
<!-- Created with Inkscape (http://www.inkscape.org/) -->

<svg
   xmlns:dc="http://purl.org/dc/elements/1.1/"
   xmlns:cc="http://creativecommons.org/ns#"
   xmlns:rdf="http://www.w3.org/1999/02/22-rdf-syntax-ns#"
   xmlns:svg="http://www.w3.org/2000/svg"
   xmlns="http://www.w3.org/2000/svg"
   xmlns:sodipodi="http://sodipodi.sourceforge.net/DTD/sodipodi-0.dtd"
   xmlns:inkscape="http://www.inkscape.org/namespaces/inkscape"
   width="64"
   height="64"
   id="svg4136"
   version="1.1"
   inkscape:version="0.91 r13725"
   viewBox="0 0 64 64"
   sodipodi:docname="virus.svg">
  <defs
     id="defs4138" />
  <sodipodi:namedview
     id="base"
     pagecolor="#ffffff"
     bordercolor="#666666"
     borderopacity="1.0"
     inkscape:pageopacity="0.0"
     inkscape:pageshadow="2"
     inkscape:zoom="11"
     inkscape:cx="19.080417"
     inkscape:cy="31.993147"
     inkscape:current-layer="layer1"
     showgrid="true"
     inkscape:document-units="px"
     inkscape:grid-bbox="true"
     inkscape:window-width="1920"
     inkscape:window-height="1018"
     inkscape:window-x="1912"
     inkscape:window-y="-8"
     inkscape:window-maximized="1" />
  <metadata
     id="metadata4141">
    <rdf:RDF>
      <cc:Work
         rdf:about="">
        <dc:format>image/svg+xml</dc:format>
        <dc:type
           rdf:resource="http://purl.org/dc/dcmitype/StillImage" />
      </cc:Work>
    </rdf:RDF>
  </metadata>
  <g
     id="layer1"
     inkscape:label="Layer 1"
     inkscape:groupmode="layer">
    <path
       sodipodi:type="star"
       style="fill:#000000;fill-opacity:0.36094677;stroke:#000000;stroke-width:1;stroke-linecap:butt;stroke-linejoin:miter;stroke-miterlimit:4;stroke-dasharray:none;stroke-opacity:1"
       id="path4690"
       sodipodi:sides="8"
       sodipodi:cx="32"
       sodipodi:cy="32"
       sodipodi:r1="27.941202"
       sodipodi:r2="18.876057"
       sodipodi:arg1="0.055243273"
       sodipodi:arg2="0.36227968"
       inkscape:flatsided="false"
       inkscape:rounded="0.3"
       inkscape:randomized="0"
       d="m 59.898577,33.542778 c 0.104718,3.438715 -8.757652,2.046161 -10.24774,5.147026 -1.840273,3.829596 3.897051,11.033957 0.985527,14.128378 -2.357492,2.505586 -7.639449,-4.745741 -10.885743,-3.60675 -4.009203,1.406664 -5.046555,10.557817 -9.293399,10.687145 -3.438715,0.104718 -2.046161,-8.757652 -5.147026,-10.24774 C 21.4806,47.810564 14.276239,53.547888 11.181818,50.636364 8.6762322,48.278872 15.927559,42.996915 14.788568,39.750621 13.381904,35.741418 4.2307507,34.704066 4.1014227,30.457222 3.9967045,27.018507 12.859075,28.411061 14.349163,25.310196 16.189436,21.4806 10.452112,14.276239 13.363636,11.181818 c 2.357492,-2.5055858 7.639449,4.745741 10.885743,3.60675 4.009203,-1.406664 5.046555,-10.5578173 9.293399,-10.6871453 3.438715,-0.1047182 2.046161,8.7576523 5.147026,10.2477403 3.829596,1.840273 11.033957,-3.897051 14.128378,-0.985527 2.505586,2.357492 -4.745741,7.639449 -3.60675,10.885743 1.406664,4.009203 10.557817,5.046555 10.687145,9.293399 z" />
    <path
       d="m 60.811179,33.401562 c 0.104718,3.438715 -8.757652,2.046161 -10.247741,5.147026 -1.840273,3.829596 3.897051,11.033957 0.985528,14.128378 -2.357492,2.505585 -7.63945,-4.745741 -10.885744,-3.60675 C 36.654019,50.47688 35.616667,59.628033 31.369823,59.757361 27.931108,59.862079 29.323662,50.999709 26.222797,49.50962 22.393201,47.669348 15.18884,53.406671 12.094419,50.495148 9.5888337,48.137656 16.84016,42.855698 15.701169,39.609404 14.294505,35.600202 5.1433522,34.562849 5.0140242,30.316005 4.909306,26.87729 13.771676,28.269844 15.261765,25.16898 17.102038,21.339384 11.364714,14.135022 14.276237,11.040601 c 2.357492,-2.505585 7.63945,4.745741 10.885744,3.606751 4.009203,-1.406664 5.046555,-10.5578176 9.293399,-10.6871455 3.438715,-0.1047182 2.046161,8.7576515 5.147025,10.2477405 3.829597,1.840273 11.033958,-3.897051 14.128379,-0.985527 2.505585,2.357491 -4.745741,7.639449 -3.60675,10.885743 1.406664,4.009203 10.557817,5.046555 10.687145,9.293399 z"
       inkscape:randomized="0"
       inkscape:rounded="0.3"
       inkscape:flatsided="false"
       sodipodi:arg2="0.36227968"
       sodipodi:arg1="0.055243273"
       sodipodi:r2="18.876057"
       sodipodi:r1="27.941202"
       sodipodi:cy="31.858784"
       sodipodi:cx="32.912601"
       sodipodi:sides="8"
       id="path4692"
       style="fill:#000000;fill-opacity:0.36094677;stroke:#000000;stroke-width:1;stroke-linecap:butt;stroke-linejoin:miter;stroke-miterlimit:4;stroke-dasharray:none;stroke-opacity:1"
       sodipodi:type="star"
       transform="matrix(0.80154514,0.36349423,-0.35968783,0.79315162,17.078281,-5.2323866)" />
    <path
       style="fill:none;fill-rule:evenodd;stroke:#000000;stroke-width:1;stroke-linecap:round;stroke-linejoin:round;stroke-miterlimit:4;stroke-dasharray:none;stroke-opacity:1"
       d="m 25.697377,23.828046 4.885465,4.371206"
       id="path4700"
       inkscape:connector-curvature="0" />
    <path
       style="fill:none;fill-rule:evenodd;stroke:#000000;stroke-width:1;stroke-linecap:round;stroke-linejoin:round;stroke-miterlimit:4;stroke-dasharray:none;stroke-opacity:1"
       d="m 36.111131,28.456382 4.242641,-4.499771"
       id="path4702"
       inkscape:connector-curvature="0" />
    <path
       style="fill:none;fill-rule:evenodd;stroke:#000000;stroke-width:1;stroke-linecap:round;stroke-linejoin:round;stroke-miterlimit:4;stroke-dasharray:none;stroke-opacity:1"
       d="m 35.590909,38.272727 c 5.772728,-0.454546 7.5,-4.545455 7.5,-4.545455"
       id="path4718"
       inkscape:connector-curvature="0" />
  </g>
</svg>
